<svg width="34" height="34" viewBox="0 0 34 34" fill="none" xmlns="http://www.w3.org/2000/svg">
<path fill-rule="evenodd" clip-rule="evenodd" d="M16.1394 4.53345H22.4484C25.6146 4.53345 28.1917 7.01132 28.1917 10.0582V19.5389C28.1917 20.0681 27.7439 20.4964 27.195 20.4964C26.6436 20.4964 26.197 20.0681 26.197 19.5389V10.0582C26.197 8.06971 24.5156 6.451 22.4484 6.451H16.1394C14.0645 6.451 12.3766 8.07469 12.3766 10.0707V11.2299C12.3766 11.7591 11.9313 12.1875 11.3799 12.1875C10.8297 12.1875 10.3832 11.7591 10.3832 11.2299V10.0707C10.3832 7.01755 12.9655 4.53345 16.1394 4.53345ZM18.3438 14.9429C18.1579 15.1334 17.9126 15.228 17.666 15.228C17.4244 15.228 17.1816 15.1359 16.9945 14.9504L16.0825 14.0451C15.7083 13.6728 15.7046 13.0664 16.0751 12.6891C16.4443 12.3119 17.0477 12.3094 17.4244 12.6817L18.3376 13.5882C18.7118 13.9592 18.7155 14.5669 18.3438 14.9429ZM16.0777 21.2839C15.7059 20.9078 15.7072 20.3014 16.0801 19.9279L18.0626 17.9443H5.4874C4.9608 17.9443 4.53333 17.5148 4.53333 16.9856C4.53333 16.4564 4.9608 16.0255 5.4874 16.0255H20.3735C20.7601 16.0255 21.1082 16.2596 21.2557 16.6195C21.4031 16.9781 21.3201 17.3915 21.0475 17.6654L17.427 21.2863C17.2411 21.4719 16.997 21.5653 16.7529 21.5653C16.5089 21.5653 16.2635 21.4719 16.0777 21.2839ZM27.1943 22.941C26.6442 22.941 26.1976 23.3706 26.1976 23.8998C26.1976 25.8958 24.5097 27.5195 22.4347 27.5195H16.1257C14.0598 27.5195 12.3771 25.9008 12.3771 23.9123V22.7406C12.3771 22.2114 11.9305 21.7818 11.3804 21.7818C10.8303 21.7818 10.3837 22.2114 10.3837 22.7406V23.9123C10.3837 26.9592 12.9596 29.4371 16.1257 29.4371H22.4347C25.6086 29.4371 28.191 26.953 28.191 23.8998C28.191 23.3706 27.7444 22.941 27.1943 22.941Z" fill="#606580"/>
</svg>
