<svg width="468" height="73" viewBox="0 0 468 73" fill="none" xmlns="http://www.w3.org/2000/svg">
<path fill-rule="evenodd" clip-rule="evenodd" d="M102.935 36.4833C102.442 36.4833 102.04 36.1126 102.04 35.6523L102.045 35.6195V21.5889V21.5268L102.049 21.4682C102.095 21.0544 102.471 20.7286 102.93 20.7286C103.39 20.7286 103.771 21.0544 103.816 21.4682L103.821 21.5268V21.5889V35.6195L103.824 35.6523C103.824 36.1126 103.424 36.4833 102.935 36.4833ZM104.599 18.1375H101.268C98.4505 18.1375 98.2815 20.4115 98.2815 21.877V35.33C98.2815 36.7972 98.4505 39.0713 101.268 39.0713H104.599C107.416 39.0713 107.588 36.7972 107.588 35.33V21.877C107.588 20.4115 107.416 18.1375 104.599 18.1375Z" fill="white"/>
<path d="M41.8867 18.1375H49.5625V20.7372H45.9091V39.072H41.8867V18.1375Z" fill="white"/>
<path fill-rule="evenodd" clip-rule="evenodd" d="M50.1572 39.0713H54.0899L54.4674 33.5059H56.3657L56.7381 39.0713H60.6776L58.5759 18.1375H52.2572L50.1572 39.0713ZM54.6106 31.2058L55.3037 20.732H55.5278L56.2192 31.2058H54.6106Z" fill="white"/>
<path d="M66.4376 31.7422V35.6817C66.4376 36.2196 66.8341 36.3714 67.0669 36.3714C67.4393 36.3714 67.6979 36.0421 67.6979 35.6817V30.8129C67.6979 30.1595 67.5858 29.4423 66.0842 29.4423H64.4549V27.1389H66.1428C67.2927 27.1389 67.6979 26.8648 67.6979 25.5855V21.4218C67.6979 21.0632 67.4393 20.7374 67.0669 20.7374C66.8341 20.7374 66.4376 20.8839 66.4376 21.4218V24.8355H62.4119V21.8787C62.4119 20.4115 62.586 18.1392 65.3997 18.1392H68.7341C71.5512 18.1392 71.7219 20.4115 71.7219 21.8787V25.2286C71.7219 27.4975 70.1978 28.1216 68.991 28.063V28.2751C71.6892 28.2113 71.7219 30.3681 71.7219 31.1181V35.33C71.7219 36.7972 71.5512 39.0713 68.7341 39.0713H65.3997C62.586 39.0713 62.4119 36.7972 62.4119 35.33V31.7422H66.4376Z" fill="white"/>
<path d="M74.3701 18.1375H83.6809V39.072H79.9263V20.7372H78.1202V39.072H74.3701V18.1375Z" fill="white"/>
<path fill-rule="evenodd" clip-rule="evenodd" d="M86.594 39.0713H90.6163V31.9543H92.9145C95.7299 31.9543 96.1816 29.6836 96.1816 28.213V21.8787C96.1816 20.4115 95.7299 18.1392 92.9145 18.1392H86.594V39.0713ZM90.6163 29.6475V20.7374H91.6714C92.1076 20.7374 92.4248 21.1271 92.4248 21.7788V28.6027C92.4248 29.2613 92.1076 29.6475 91.6714 29.6475H90.6163Z" fill="white"/>
<path d="M120.426 18.1375H125.66V39.072H121.634V25.9433H121.491L119.417 39.072H116.204L114.134 25.9433H113.993V39.072H109.967V18.1375H115.192L117.804 32.8489L120.426 18.1375Z" fill="white"/>
<path fill-rule="evenodd" clip-rule="evenodd" d="M33.3074 20.265C33.2609 22.3874 33.0057 24.627 32.6833 25.9631C32.7988 23.6615 32.5195 20.4047 31.9885 17.8634C31.4592 15.3221 29.9523 11.0843 28.7541 9.11708C27.6507 10.9843 26.2818 14.6531 25.5663 17.8444C24.849 21.0288 24.8284 24.8856 24.8284 26.0424C24.6353 25.058 24.1594 21.5891 24.2956 18.0978C24.4094 15.2134 25.0818 12.2566 25.4508 10.8912C26.8593 6.34648 28.4576 3.43967 28.7541 2.97589C29.0541 3.43967 31.0644 7.01887 32.1057 10.7774C33.1436 14.5411 33.3488 18.1427 33.3074 20.265ZM28.78 36.5092C28.1558 35.3351 27.1817 33.0973 27.0903 29.6388C27.0645 26.2923 28.4075 23.4252 28.7989 22.8252C29.1506 23.4252 30.3006 25.9216 30.4368 29.337C30.5351 32.6783 29.4265 35.3093 28.78 36.5092ZM33.6746 10.8255C32.404 5.26363 29.2144 0.737909 28.7799 0C28.0834 1.03962 25.5421 5.03088 24.2525 9.46178C22.8405 14.403 22.6336 18.7856 23.1181 23.1062C23.6042 27.4199 25.43 31.8525 25.43 31.8525C26.4007 34.1783 27.8541 36.6696 28.7989 37.8937C30.1834 36.092 33.3764 30.7232 34.366 23.7062C34.9194 19.8028 34.9401 16.3874 33.6746 10.8255Z" fill="white"/>
<path d="M20.9769 39.0676V45.6484C20.9856 45.6381 20.9959 45.6312 21.008 45.6208C23.3062 43.3313 27.0406 43.3313 29.3422 45.6208C31.6456 47.9087 31.6456 51.6327 29.3422 53.9223L29.3146 53.9499V53.9516C29.2991 53.962 29.2905 53.9723 29.2819 53.9827C26.9802 56.2498 23.9786 57.3895 20.9769 57.3895C17.9701 57.3895 14.9495 56.2395 12.6513 53.9568C8.60146 49.919 8.11699 43.6778 11.2083 39.1176C11.6238 38.5038 12.1031 37.9194 12.6513 37.3763C14.9495 35.085 17.9701 33.9453 20.9769 33.9453V18.2493C9.39971 18.2493 0 27.5955 0 39.1176C0 50.6535 9.39971 59.9997 20.9769 59.9997C27.0233 59.9997 32.4611 57.4515 36.2868 53.3896V39.0676H20.9769Z" fill="white"/>
<path fill-rule="evenodd" clip-rule="evenodd" d="M121.9 55.0553C121.9 57.0432 120.995 57.3983 118.686 57.3983H116.564V48.3072H118.686V51.8158H119.043C121.129 51.8158 121.9 52.3037 121.9 54.1209V55.0553ZM104.181 50.0263H102.573V57.4053H100.552V50.0263H98.8281V48.3022H104.181V50.0263ZM87.8422 54.1571C87.8422 56.0001 86.9026 56.4984 84.813 56.4984V57.3983H82.7475V56.4984C80.651 56.4984 79.7011 56.0001 79.7011 54.1571V51.3175C79.7011 49.4624 80.6131 48.99 82.7475 48.99V48.3072H84.813V48.99C86.9353 48.99 87.8422 49.4624 87.8422 51.3175V54.1571ZM68.5928 50.0263H65.6877V51.8159H68.2876V53.5382H65.6877V55.6795H68.5928V57.4053H63.4981V48.3022H68.5928V50.0263ZM50.983 57.3983H48.8572V53.4209H47.7676V57.3983H45.6418V48.3072H47.7676V51.8158H48.8572V48.3072H50.983V57.3983ZM125.66 46.0435H41.8867V59.9999H125.66V46.0435ZM81.7648 51.2605V54.1708C81.7648 54.7035 81.9355 54.8242 82.4045 54.8242H82.7476V50.5899H82.4045C81.9355 50.5899 81.7648 50.7261 81.7648 51.2605ZM119.159 53.421H118.686V55.7933H119.159C119.636 55.7933 119.777 55.6692 119.777 55.1537V54.0589C119.777 53.5382 119.636 53.421 119.159 53.421ZM85.1389 50.5899H84.813V54.8242H85.1389C85.613 54.8242 85.7837 54.6915 85.7837 54.157V51.233C85.7837 50.6985 85.613 50.5899 85.1389 50.5899Z" fill="white"/>
<path d="M176.592 37.6077H174.579V34H163.617V18.0595H165.736V32.1372H172.962V18.0595H175.082V32.1372H176.592V37.6077ZM187.929 34H185.937V25.0823L180.306 34H178.486V22.042H180.478V30.8205L186.044 22.042H187.929V34ZM205.379 27.7052C205.379 28.7686 205.247 29.7107 204.982 30.5314C204.726 31.345 204.383 32.0159 203.955 32.5441C203.519 33.0793 203.027 33.4861 202.477 33.7645C201.928 34.0357 201.353 34.1713 200.754 34.1713C200.304 34.1713 199.908 34.0856 199.566 33.9144C199.23 33.7431 198.945 33.5968 198.709 33.4754V38.4107H196.718V33.4754C196.297 33.6967 195.961 33.868 195.712 33.9893C195.462 34.1106 195.051 34.1713 194.48 34.1713C193.139 34.1713 192.065 33.6289 191.258 32.5441C190.452 31.4521 190.048 29.9569 190.048 28.0585C190.048 27.0593 190.177 26.1672 190.434 25.3821C190.691 24.597 191.044 23.9297 191.494 23.3802C191.908 22.8734 192.386 22.4809 192.928 22.2026C193.478 21.9171 194.049 21.7743 194.641 21.7743C195.062 21.7743 195.44 21.8493 195.776 21.9992C196.118 22.1419 196.432 22.3061 196.718 22.4916V17.3423H198.709V22.4916C199.023 22.2989 199.384 22.1312 199.79 21.9885C200.197 21.8457 200.615 21.7743 201.043 21.7743C202.385 21.7743 203.441 22.3132 204.212 23.3909C204.99 24.4614 205.379 25.8995 205.379 27.7052ZM203.312 27.93C203.312 26.5668 203.08 25.4891 202.617 24.6969C202.16 23.9047 201.482 23.5086 200.583 23.5086C200.211 23.5086 199.883 23.5586 199.598 23.6585C199.319 23.7513 199.023 23.8548 198.709 23.969V31.9445C199.023 32.0944 199.276 32.2158 199.469 32.3085C199.669 32.4013 199.958 32.4477 200.336 32.4477C201.264 32.4477 201.992 32.0659 202.52 31.3022C203.048 30.5386 203.312 29.4145 203.312 27.93ZM196.718 31.9445V23.969C196.461 23.8476 196.204 23.7406 195.947 23.6478C195.69 23.555 195.405 23.5086 195.091 23.5086C194.177 23.5086 193.453 23.8691 192.917 24.5899C192.382 25.3107 192.114 26.4348 192.114 27.9621C192.114 29.3538 192.354 30.4494 192.832 31.2487C193.317 32.048 194.009 32.4477 194.909 32.4477C195.265 32.4477 195.587 32.3942 195.872 32.2871C196.158 32.1801 196.44 32.0659 196.718 31.9445ZM217.529 27.7052C217.529 29.6964 217.051 31.2844 216.095 32.4691C215.146 33.6467 213.943 34.2355 212.487 34.2355C211.895 34.2355 211.37 34.1677 210.913 34.0321C210.457 33.8965 209.989 33.686 209.511 33.4005V38.4107H207.498V22.042H209.511V23.2945C210.01 22.8449 210.564 22.4702 211.17 22.1705C211.784 21.8636 212.451 21.7101 213.172 21.7101C214.542 21.7101 215.609 22.2525 216.373 23.3373C217.144 24.4222 217.529 25.8781 217.529 27.7052ZM215.452 27.93C215.452 26.5668 215.235 25.5106 214.799 24.7612C214.364 24.0047 213.657 23.6264 212.68 23.6264C212.109 23.6264 211.556 23.7549 211.02 24.0118C210.492 24.2616 209.989 24.5863 209.511 24.986V31.7626C210.039 32.0195 210.489 32.1943 210.86 32.2871C211.238 32.3799 211.67 32.4263 212.155 32.4263C213.197 32.4263 214.007 32.0445 214.585 31.2808C215.163 30.5172 215.452 29.4002 215.452 27.93ZM229.455 28.0263C229.455 30.039 228.97 31.5948 227.999 32.6939C227.029 33.7859 225.737 34.3319 224.124 34.3319C222.461 34.3319 221.151 33.768 220.195 32.6404C219.246 31.5056 218.771 29.9676 218.771 28.0263C218.771 26.028 219.26 24.4757 220.238 23.3695C221.223 22.2632 222.518 21.7101 224.124 21.7101C225.737 21.7101 227.029 22.2632 227.999 23.3695C228.97 24.4686 229.455 26.0209 229.455 28.0263ZM227.378 28.0263C227.378 26.4776 227.096 25.3286 226.533 24.5792C225.969 23.8227 225.166 23.4444 224.124 23.4444C223.075 23.4444 222.265 23.8227 221.694 24.5792C221.13 25.3286 220.848 26.4776 220.848 28.0263C220.848 29.5251 221.13 30.6635 221.694 31.4414C222.265 32.2122 223.075 32.5976 224.124 32.5976C225.159 32.5976 225.958 32.2193 226.522 31.4628C227.093 30.6991 227.378 29.5537 227.378 28.0263ZM240.899 30.3815C240.899 30.9596 240.789 31.4735 240.567 31.9231C240.346 32.3656 240.043 32.7368 239.658 33.0365C239.172 33.4148 238.662 33.6717 238.127 33.8073C237.598 33.9358 236.963 34 236.221 34H231.521V22.042H235.911C236.788 22.042 237.431 22.0705 237.838 22.1276C238.244 22.1776 238.648 22.3132 239.047 22.5344C239.468 22.7628 239.779 23.0661 239.979 23.4444C240.179 23.8227 240.278 24.2723 240.278 24.7933C240.278 25.3643 240.121 25.8781 239.807 26.3349C239.493 26.7845 239.076 27.1342 238.555 27.384L238.608 27.459C239.258 27.6231 239.8 27.955 240.236 28.4546C240.678 28.9542 240.899 29.5965 240.899 30.3815ZM238.212 25.1038C238.212 24.8325 238.166 24.597 238.073 24.3972C237.987 24.1974 237.834 24.0403 237.613 23.9261C237.356 23.7905 237.067 23.712 236.746 23.6906C236.432 23.6621 235.993 23.6478 235.429 23.6478H233.513V26.9237H235.825C236.317 26.9237 236.667 26.9023 236.874 26.8594C237.081 26.8095 237.309 26.7096 237.559 26.5597C237.795 26.417 237.962 26.2243 238.062 25.9816C238.162 25.7389 238.212 25.4463 238.212 25.1038ZM238.822 30.3923C238.822 29.9854 238.762 29.6607 238.64 29.4181C238.526 29.1683 238.269 28.947 237.87 28.7543C237.62 28.633 237.352 28.5581 237.067 28.5295C236.781 28.501 236.385 28.4867 235.878 28.4867H233.513V32.3942H235.258C235.978 32.3942 236.539 32.3656 236.938 32.3085C237.338 32.2514 237.681 32.1372 237.966 31.966C238.266 31.7804 238.483 31.5663 238.619 31.3236C238.755 31.081 238.822 30.7705 238.822 30.3923ZM249.699 31.056V27.7373C249.221 27.7801 248.614 27.8408 247.879 27.9193C247.151 27.9907 246.563 28.0941 246.113 28.2297C245.578 28.3939 245.135 28.6473 244.785 28.9898C244.436 29.3253 244.261 29.7963 244.261 30.403C244.261 31.0881 244.454 31.6055 244.839 31.9553C245.224 32.305 245.788 32.4798 246.53 32.4798C247.166 32.4798 247.74 32.3442 248.254 32.073C248.768 31.7947 249.25 31.4557 249.699 31.056ZM249.699 32.726C249.535 32.8474 249.314 33.0187 249.036 33.2399C248.764 33.454 248.5 33.6253 248.243 33.7538C247.886 33.9393 247.54 34.0821 247.205 34.182C246.877 34.2819 246.413 34.3319 245.813 34.3319C245.321 34.3319 244.853 34.2391 244.411 34.0535C243.968 33.868 243.579 33.6075 243.244 33.272C242.923 32.9437 242.666 32.5405 242.473 32.0623C242.28 31.577 242.184 31.0667 242.184 30.5314C242.184 29.7035 242.359 29.0005 242.709 28.4224C243.058 27.8372 243.611 27.3733 244.368 27.0307C245.039 26.7238 245.831 26.5133 246.745 26.3991C247.658 26.2778 248.643 26.1886 249.699 26.1315V25.7461C249.699 25.275 249.628 24.8968 249.485 24.6113C249.342 24.3187 249.143 24.0939 248.886 23.9369C248.629 23.7727 248.315 23.6656 247.944 23.6157C247.572 23.5586 247.191 23.53 246.798 23.53C246.334 23.53 245.788 23.6014 245.16 23.7442C244.532 23.8798 243.904 24.0796 243.276 24.3437H243.158V22.2989C243.529 22.1919 244.061 22.0741 244.753 21.9456C245.446 21.8172 246.131 21.7529 246.809 21.7529C247.63 21.7529 248.322 21.8172 248.886 21.9456C249.449 22.0741 249.956 22.3061 250.406 22.6415C250.841 22.9698 251.166 23.3944 251.38 23.9154C251.594 24.4364 251.701 25.0716 251.701 25.821V34H249.699V32.726ZM263.199 34H261.186V29.2575H259.195L255.651 34H253.307L257.15 29.0755C256.158 28.7829 255.43 28.3475 254.966 27.7694C254.51 27.1913 254.281 26.417 254.281 25.4463C254.281 24.854 254.41 24.3365 254.667 23.894C254.931 23.4444 255.284 23.0661 255.726 22.7593C256.083 22.5166 256.533 22.3382 257.075 22.224C257.618 22.1027 258.224 22.042 258.895 22.042H263.199V34ZM261.186 27.6731V23.6478H259.002C258.538 23.6478 258.171 23.6728 257.9 23.7227C257.636 23.7727 257.379 23.8691 257.129 24.0118C256.872 24.1688 256.676 24.3829 256.54 24.6541C256.412 24.9182 256.347 25.2037 256.347 25.5106C256.347 25.9031 256.39 26.2243 256.476 26.4741C256.569 26.7167 256.733 26.9415 256.968 27.1485C257.218 27.3626 257.521 27.5053 257.878 27.5767C258.242 27.6409 258.638 27.6731 259.067 27.6731H261.186Z" fill="#0089FF"/>
<path d="M172.898 60H170.907V51.0823L165.276 60H163.456V48.042H165.447V56.8205L171.014 48.042H172.898V60ZM185.252 60H183.24V54.6151H177.823V60H175.81V48.042H177.823V52.8809H183.24V48.042H185.252V60ZM198.42 62.8691H196.547V59.9679H188.667V62.8691H186.794V58.2871H187.586C188.264 57.1738 188.817 55.7214 189.245 53.93C189.681 52.1315 189.898 50.1688 189.898 48.042H197.232V58.2871H198.42V62.8691ZM195.219 58.2871V49.7335H191.793C191.701 51.5177 191.454 53.1485 191.055 54.6259C190.662 56.0961 190.166 57.3165 189.567 58.2871H195.219ZM209.811 48.042L203.377 64.4107H201.225L203.366 59.4219L199.02 48.042H201.193L204.458 56.8954L207.712 48.042H209.811ZM216.084 60.2676C215.263 60.2676 214.51 60.1427 213.825 59.8929C213.14 59.636 212.551 59.2506 212.059 58.7368C211.566 58.2229 211.185 57.577 210.913 56.7991C210.642 56.014 210.507 55.0933 210.507 54.0371C210.507 52.9879 210.646 52.0815 210.924 51.3179C211.209 50.5542 211.588 49.9119 212.059 49.3909C212.53 48.8699 213.115 48.4702 213.814 48.1919C214.521 47.9064 215.278 47.7636 216.084 47.7636C216.741 47.7636 217.372 47.8564 217.979 48.042C218.593 48.2275 219.139 48.4417 219.617 48.6843V50.9432H219.499C219.356 50.8218 219.171 50.6827 218.942 50.5257C218.721 50.3686 218.45 50.2081 218.129 50.0439C217.85 49.9012 217.522 49.7763 217.144 49.6692C216.766 49.5622 216.402 49.5086 216.052 49.5086C215.01 49.5086 214.171 49.9047 213.536 50.6969C212.908 51.482 212.594 52.5954 212.594 54.0371C212.594 55.4502 212.897 56.5528 213.504 57.345C214.118 58.1301 214.967 58.5226 216.052 58.5226C216.709 58.5226 217.333 58.387 217.925 58.1158C218.518 57.8446 219.042 57.4949 219.499 57.0667H219.617V59.3256C219.417 59.4183 219.167 59.5325 218.867 59.6681C218.568 59.7966 218.297 59.8929 218.054 59.9572C217.711 60.0571 217.404 60.132 217.133 60.182C216.862 60.2391 216.512 60.2676 216.084 60.2676ZM230.194 49.8084H226.126V60H224.113V49.8084H220.045V48.042H230.194V49.8084ZM241.724 53.7052C241.724 55.6964 241.245 57.2844 240.289 58.4691C239.34 59.6467 238.137 60.2355 236.681 60.2355C236.089 60.2355 235.564 60.1677 235.108 60.0321C234.651 59.8965 234.183 59.686 233.705 59.4005V64.4107H231.693V48.042H233.705V49.2945C234.205 48.8449 234.758 48.4702 235.365 48.1705C235.978 47.8636 236.646 47.7101 237.367 47.7101C238.737 47.7101 239.804 48.2525 240.567 49.3373C241.338 50.4222 241.724 51.8781 241.724 53.7052ZM239.647 53.93C239.647 52.5668 239.429 51.5106 238.994 50.7612C238.558 50.0047 237.852 49.6264 236.874 49.6264C236.303 49.6264 235.75 49.7549 235.215 50.0118C234.687 50.2616 234.183 50.5863 233.705 50.986V57.7626C234.233 58.0195 234.683 58.1943 235.054 58.2871C235.432 58.3799 235.864 58.4263 236.35 58.4263C237.392 58.4263 238.202 58.0445 238.78 57.2808C239.358 56.5172 239.647 55.4002 239.647 53.93ZM253.253 60H251.262V51.0823L245.631 60H243.811V48.042H245.802V56.8205L251.369 48.042H253.253V60ZM262.846 57.056V53.7373C262.367 53.7801 261.761 53.8408 261.026 53.9193C260.298 53.9907 259.709 54.0941 259.259 54.2297C258.724 54.3939 258.281 54.6473 257.932 54.9898C257.582 55.3253 257.407 55.7963 257.407 56.403C257.407 57.0881 257.6 57.6055 257.985 57.9553C258.371 58.305 258.934 58.4798 259.677 58.4798C260.312 58.4798 260.886 58.3442 261.4 58.073C261.914 57.7947 262.396 57.4557 262.846 57.056ZM262.846 58.726C262.681 58.8474 262.46 59.0187 262.182 59.2399C261.911 59.454 261.647 59.6253 261.39 59.7538C261.033 59.9393 260.687 60.0821 260.351 60.182C260.023 60.2819 259.559 60.3319 258.959 60.3319C258.467 60.3319 258 60.2391 257.557 60.0535C257.115 59.868 256.726 59.6075 256.39 59.272C256.069 58.9437 255.812 58.5405 255.619 58.0623C255.427 57.577 255.33 57.0667 255.33 56.5314C255.33 55.7035 255.505 55.0005 255.855 54.4224C256.205 53.8372 256.758 53.3733 257.514 53.0307C258.185 52.7238 258.977 52.5133 259.891 52.3991C260.804 52.2778 261.789 52.1886 262.846 52.1315V51.7461C262.846 51.275 262.774 50.8968 262.631 50.6113C262.489 50.3187 262.289 50.0939 262.032 49.9369C261.775 49.7727 261.461 49.6656 261.09 49.6157C260.719 49.5586 260.337 49.53 259.944 49.53C259.48 49.53 258.934 49.6014 258.306 49.7442C257.678 49.8798 257.05 50.0796 256.422 50.3437H256.305V48.2989C256.676 48.1919 257.207 48.0741 257.9 47.9456C258.592 47.8172 259.277 47.7529 259.955 47.7529C260.776 47.7529 261.468 47.8172 262.032 47.9456C262.596 48.0741 263.102 48.3061 263.552 48.6415C263.987 48.9698 264.312 49.3944 264.526 49.9154C264.74 50.4364 264.847 51.0716 264.847 51.821V60H262.846V58.726ZM276.945 60H274.932V49.7335H270.821C270.8 50.3258 270.778 50.8968 270.757 51.4463C270.735 51.9887 270.714 52.4812 270.693 52.9237C270.65 54.0442 270.575 54.9827 270.468 55.7392C270.368 56.4957 270.239 57.1024 270.082 57.5592C269.925 58.0302 269.751 58.3977 269.558 58.6618C269.372 58.9259 269.162 59.165 268.926 59.3791C268.684 59.5932 268.423 59.7538 268.145 59.8608C267.866 59.9679 267.552 60.0214 267.203 60.0214C267.088 60.0214 266.942 60.0178 266.764 60.0107C266.585 60.0036 266.46 60 266.389 60V58.2443H266.496C266.546 58.2443 266.596 58.2479 266.646 58.255C266.703 58.2621 266.767 58.2657 266.839 58.2657C267.01 58.2657 267.178 58.2407 267.342 58.1908C267.506 58.1408 267.652 58.048 267.781 57.9124C268.138 57.5627 268.398 56.9525 268.562 56.0818C268.726 55.2039 268.844 53.98 268.916 52.4098C268.944 51.8246 268.969 51.1323 268.991 50.333C269.019 49.5336 269.044 48.77 269.065 48.042H276.945V60ZM288.924 56.2959C288.924 56.874 288.806 57.3986 288.571 57.8696C288.342 58.3407 288.028 58.7225 287.629 59.0151C287.158 59.3719 286.655 59.6253 286.119 59.7752C285.584 59.9251 284.895 60 284.053 60H279.867V48.042H281.88V52.6989H284.107C285.006 52.6989 285.702 52.7453 286.194 52.838C286.694 52.9308 287.19 53.1592 287.682 53.5232C288.096 53.8301 288.407 54.2226 288.614 54.7008C288.821 55.179 288.924 55.7107 288.924 56.2959ZM286.847 56.328C286.847 55.964 286.783 55.6464 286.655 55.3752C286.533 55.0969 286.33 54.8721 286.044 54.7008C285.745 54.5224 285.402 54.4153 285.017 54.3796C284.638 54.3439 284.092 54.3261 283.379 54.3261H281.88V58.3942H283.336C284.05 58.3942 284.603 58.3656 284.995 58.3085C285.388 58.2443 285.727 58.1265 286.012 57.9553C286.305 57.7697 286.515 57.552 286.644 57.3022C286.779 57.0453 286.847 56.7206 286.847 56.328ZM300.293 60H298.281V54.6151H292.864V60H290.851V48.042H292.864V52.8809H298.281V48.042H300.293V60ZM309.885 57.056V53.7373C309.407 53.7801 308.801 53.8408 308.065 53.9193C307.338 53.9907 306.749 54.0941 306.299 54.2297C305.764 54.3939 305.321 54.6473 304.972 54.9898C304.622 55.3253 304.447 55.7963 304.447 56.403C304.447 57.0881 304.64 57.6055 305.025 57.9553C305.411 58.305 305.974 58.4798 306.717 58.4798C307.352 58.4798 307.926 58.3442 308.44 58.073C308.954 57.7947 309.436 57.4557 309.885 57.056ZM309.885 58.726C309.721 58.8474 309.5 59.0187 309.222 59.2399C308.95 59.454 308.686 59.6253 308.429 59.7538C308.073 59.9393 307.726 60.0821 307.391 60.182C307.063 60.2819 306.599 60.3319 305.999 60.3319C305.507 60.3319 305.039 60.2391 304.597 60.0535C304.154 59.868 303.765 59.6075 303.43 59.272C303.109 58.9437 302.852 58.5405 302.659 58.0623C302.467 57.577 302.37 57.0667 302.37 56.5314C302.37 55.7035 302.545 55.0005 302.895 54.4224C303.244 53.8372 303.798 53.3733 304.554 53.0307C305.225 52.7238 306.017 52.5133 306.931 52.3991C307.844 52.2778 308.829 52.1886 309.885 52.1315V51.7461C309.885 51.275 309.814 50.8968 309.671 50.6113C309.529 50.3187 309.329 50.0939 309.072 49.9369C308.815 49.7727 308.501 49.6656 308.13 49.6157C307.759 49.5586 307.377 49.53 306.984 49.53C306.52 49.53 305.974 49.6014 305.346 49.7442C304.718 49.8798 304.09 50.0796 303.462 50.3437H303.344V48.2989C303.715 48.1919 304.247 48.0741 304.939 47.9456C305.632 47.8172 306.317 47.7529 306.995 47.7529C307.816 47.7529 308.508 47.8172 309.072 47.9456C309.636 48.0741 310.142 48.3061 310.592 48.6415C311.027 48.9698 311.352 49.3944 311.566 49.9154C311.78 50.4364 311.887 51.0716 311.887 51.821V60H309.885V58.726ZM323.385 60H321.372V55.2575H319.381L315.838 60H313.493L317.336 55.0755C316.344 54.7829 315.616 54.3475 315.153 53.7694C314.696 53.1913 314.467 52.417 314.467 51.4463C314.467 50.854 314.596 50.3365 314.853 49.894C315.117 49.4444 315.47 49.0661 315.913 48.7593C316.269 48.5166 316.719 48.3382 317.261 48.224C317.804 48.1027 318.411 48.042 319.081 48.042H323.385V60ZM321.372 53.6731V49.6478H319.188C318.725 49.6478 318.357 49.6728 318.086 49.7227C317.822 49.7727 317.565 49.8691 317.315 50.0118C317.058 50.1688 316.862 50.3829 316.726 50.6541C316.598 50.9182 316.534 51.2037 316.534 51.5106C316.534 51.9031 316.576 52.2243 316.662 52.4741C316.755 52.7167 316.919 52.9415 317.154 53.1485C317.404 53.3626 317.708 53.5053 318.064 53.5767C318.428 53.6409 318.824 53.6731 319.253 53.6731H321.372ZM332.153 57.2594H332.281C332.438 57.395 332.631 57.5377 332.859 57.6876C333.095 57.8304 333.37 57.966 333.684 58.0944C334.026 58.2372 334.355 58.3478 334.669 58.4263C334.983 58.5048 335.368 58.5441 335.825 58.5441C336.853 58.5441 337.677 58.1979 338.298 57.5056C338.919 56.8133 339.276 55.8106 339.368 54.4974H333.93V52.8809H339.358C339.229 51.7461 338.854 50.8968 338.234 50.333C337.62 49.7691 336.856 49.4872 335.943 49.4872C335.536 49.4872 335.157 49.5336 334.808 49.6264C334.458 49.712 334.119 49.8298 333.791 49.9797C333.52 50.1081 333.277 50.2473 333.063 50.3972C332.856 50.5471 332.656 50.7005 332.463 50.8575H332.335V48.6522C332.713 48.488 333.245 48.2989 333.93 48.0848C334.622 47.8707 335.279 47.7636 335.9 47.7636C336.706 47.7636 337.445 47.885 338.116 48.1276C338.787 48.3703 339.365 48.7414 339.85 49.241C340.342 49.7549 340.717 50.3793 340.974 51.1145C341.238 51.8424 341.37 52.731 341.37 53.7801C341.37 55.7785 340.856 57.3593 339.829 58.5226C338.808 59.686 337.427 60.2676 335.686 60.2676C335.036 60.2676 334.401 60.182 333.78 60.0107C333.166 59.8466 332.624 59.6646 332.153 59.4647V57.2594ZM353.125 60H350.62L346.52 54.4867H345.513V60H343.501V48.042H345.513V53.2448C346.034 53.2377 346.477 53.1307 346.841 52.9237C347.212 52.7096 347.526 52.2992 347.783 51.6926C347.861 51.5141 347.947 51.3072 348.04 51.0716C348.14 50.8361 348.218 50.6291 348.275 50.4507C348.589 49.5729 349.025 48.952 349.581 48.588C350.138 48.224 350.862 48.042 351.755 48.042H352.301V49.7763H351.84C351.276 49.7763 350.852 49.894 350.566 50.1296C350.288 50.3579 350.052 50.779 349.86 51.3928C349.66 52.0137 349.424 52.499 349.153 52.8487C348.882 53.1913 348.582 53.4554 348.254 53.6409L353.125 60ZM364.259 54.0263C364.259 56.039 363.773 57.5948 362.803 58.6939C361.832 59.7859 360.54 60.3319 358.927 60.3319C357.264 60.3319 355.955 59.768 354.998 58.6404C354.049 57.5056 353.574 55.9676 353.574 54.0263C353.574 52.028 354.063 50.4757 355.041 49.3695C356.026 48.2632 357.321 47.7101 358.927 47.7101C360.54 47.7101 361.832 48.2632 362.803 49.3695C363.773 50.4686 364.259 52.0209 364.259 54.0263ZM362.182 54.0263C362.182 52.4776 361.9 51.3286 361.336 50.5792C360.772 49.8227 359.969 49.4444 358.927 49.4444C357.878 49.4444 357.068 49.8227 356.497 50.5792C355.933 51.3286 355.651 52.4776 355.651 54.0263C355.651 55.5251 355.933 56.6635 356.497 57.4414C357.068 58.2122 357.878 58.5976 358.927 58.5976C359.962 58.5976 360.761 58.2193 361.325 57.4628C361.896 56.6991 362.182 55.5537 362.182 54.0263ZM371.078 60.2676C370.257 60.2676 369.504 60.1427 368.819 59.8929C368.134 59.636 367.545 59.2506 367.053 58.7368C366.56 58.2229 366.178 57.577 365.907 56.7991C365.636 56.014 365.5 55.0933 365.5 54.0371C365.5 52.9879 365.64 52.0815 365.918 51.3179C366.203 50.5542 366.582 49.9119 367.053 49.3909C367.524 48.8699 368.109 48.4702 368.808 48.1919C369.515 47.9064 370.271 47.7636 371.078 47.7636C371.735 47.7636 372.366 47.8564 372.973 48.042C373.587 48.2275 374.133 48.4417 374.611 48.6843V50.9432H374.493C374.35 50.8218 374.165 50.6827 373.936 50.5257C373.715 50.3686 373.444 50.2081 373.123 50.0439C372.844 49.9012 372.516 49.7763 372.138 49.6692C371.759 49.5622 371.395 49.5086 371.046 49.5086C370.004 49.5086 369.165 49.9047 368.53 50.6969C367.902 51.482 367.588 52.5954 367.588 54.0371C367.588 55.4502 367.891 56.5528 368.498 57.345C369.112 58.1301 369.961 58.5226 371.046 58.5226C371.702 58.5226 372.327 58.387 372.919 58.1158C373.512 57.8446 374.036 57.4949 374.493 57.0667H374.611V59.3256C374.411 59.4183 374.161 59.5325 373.861 59.6681C373.562 59.7966 373.29 59.8929 373.048 59.9572C372.705 60.0571 372.398 60.132 372.127 60.182C371.856 60.2391 371.506 60.2676 371.078 60.2676ZM385.894 60H383.903V51.0823L378.272 60H376.452V48.042H378.443V56.8205L384.01 48.042H385.894V60ZM393.559 60.2676C392.739 60.2676 391.986 60.1427 391.301 59.8929C390.615 59.636 390.027 59.2506 389.534 58.7368C389.042 58.2229 388.66 57.577 388.389 56.7991C388.117 56.014 387.982 55.0933 387.982 54.0371C387.982 52.9879 388.121 52.0815 388.399 51.3179C388.685 50.5542 389.063 49.9119 389.534 49.3909C390.005 48.8699 390.59 48.4702 391.29 48.1919C391.996 47.9064 392.753 47.7636 393.559 47.7636C394.216 47.7636 394.848 47.8564 395.454 48.042C396.068 48.2275 396.614 48.4417 397.092 48.6843V50.9432H396.974C396.832 50.8218 396.646 50.6827 396.418 50.5257C396.197 50.3686 395.925 50.2081 395.604 50.0439C395.326 49.9012 394.997 49.7763 394.619 49.6692C394.241 49.5622 393.877 49.5086 393.527 49.5086C392.485 49.5086 391.647 49.9047 391.011 50.6969C390.383 51.482 390.069 52.5954 390.069 54.0371C390.069 55.4502 390.373 56.5528 390.979 57.345C391.593 58.1301 392.442 58.5226 393.527 58.5226C394.184 58.5226 394.808 58.387 395.401 58.1158C395.993 57.8446 396.518 57.4949 396.974 57.0667H397.092V59.3256C396.892 59.4183 396.643 59.5325 396.343 59.6681C396.043 59.7966 395.772 59.8929 395.529 59.9572C395.187 60.0571 394.88 60.132 394.609 60.182C394.337 60.2391 393.988 60.2676 393.559 60.2676ZM407.669 49.8084H403.601V60H401.589V49.8084H397.52V48.042H407.669V49.8084ZM414.36 60.2783C412.455 60.2783 410.974 59.7431 409.917 58.6725C408.868 57.5948 408.344 56.0675 408.344 54.0906C408.344 52.1422 408.854 50.5935 409.875 49.4444C410.895 48.2882 412.23 47.7101 413.878 47.7101C414.621 47.7101 415.277 47.8172 415.848 48.0313C416.419 48.2454 416.919 48.5808 417.347 49.0376C417.775 49.4944 418.103 50.0546 418.332 50.7184C418.56 51.375 418.674 52.1814 418.674 53.1378V54.2297H410.388C410.388 55.6215 410.738 56.6849 411.438 57.42C412.137 58.1551 413.104 58.5226 414.339 58.5226C414.781 58.5226 415.213 58.4727 415.634 58.3728C416.062 58.2729 416.448 58.1444 416.79 57.9874C417.154 57.8232 417.461 57.6662 417.711 57.5163C417.961 57.3593 418.168 57.213 418.332 57.0774H418.45V59.272C418.214 59.3648 417.921 59.4826 417.572 59.6253C417.222 59.7609 416.908 59.868 416.63 59.9465C416.237 60.0535 415.88 60.1356 415.559 60.1927C415.245 60.2498 414.845 60.2783 414.36 60.2783ZM416.715 52.6882C416.701 52.1458 416.637 51.6783 416.523 51.2857C416.408 50.8932 416.244 50.5613 416.03 50.2901C415.795 49.9904 415.491 49.762 415.12 49.605C414.756 49.448 414.303 49.3695 413.761 49.3695C413.225 49.3695 412.769 49.4515 412.39 49.6157C412.019 49.7727 411.68 50.0047 411.373 50.3115C411.074 50.6256 410.845 50.9753 410.688 51.3607C410.531 51.7389 410.431 52.1814 410.388 52.6882H416.715ZM431.799 60H429.808V50.6006L426.939 56.7027H425.44L422.593 50.6006V60H420.708V48.042H423.139L426.286 54.6794L429.326 48.042H431.799V60ZM441.391 57.056V53.7373C440.913 53.7801 440.307 53.8408 439.572 53.9193C438.844 53.9907 438.255 54.0941 437.805 54.2297C437.27 54.3939 436.827 54.6473 436.478 54.9898C436.128 55.3253 435.953 55.7963 435.953 56.403C435.953 57.0881 436.146 57.6055 436.531 57.9553C436.917 58.305 437.48 58.4798 438.223 58.4798C438.858 58.4798 439.432 58.3442 439.946 58.073C440.46 57.7947 440.942 57.4557 441.391 57.056ZM441.391 58.726C441.227 58.8474 441.006 59.0187 440.728 59.2399C440.456 59.454 440.192 59.6253 439.935 59.7538C439.579 59.9393 439.233 60.0821 438.897 60.182C438.569 60.2819 438.105 60.3319 437.505 60.3319C437.013 60.3319 436.545 60.2391 436.103 60.0535C435.66 59.868 435.271 59.6075 434.936 59.272C434.615 58.9437 434.358 58.5405 434.165 58.0623C433.973 57.577 433.876 57.0667 433.876 56.5314C433.876 55.7035 434.051 55.0005 434.401 54.4224C434.75 53.8372 435.304 53.3733 436.06 53.0307C436.731 52.7238 437.523 52.5133 438.437 52.3991C439.35 52.2778 440.335 52.1886 441.391 52.1315V51.7461C441.391 51.275 441.32 50.8968 441.177 50.6113C441.035 50.3187 440.835 50.0939 440.578 49.9369C440.321 49.7727 440.007 49.6656 439.636 49.6157C439.265 49.5586 438.883 49.53 438.49 49.53C438.026 49.53 437.48 49.6014 436.852 49.7442C436.224 49.8798 435.596 50.0796 434.968 50.3437H434.85V48.2989C435.222 48.1919 435.753 48.0741 436.446 47.9456C437.138 47.8172 437.823 47.7529 438.501 47.7529C439.322 47.7529 440.014 47.8172 440.578 47.9456C441.142 48.0741 441.648 48.3061 442.098 48.6415C442.533 48.9698 442.858 49.3944 443.072 49.9154C443.286 50.4364 443.393 51.0716 443.393 51.821V60H441.391V58.726Z" fill="white"/>
<rect x="143" y="7" width="2" height="64" fill="white"/>
</svg>
