<svg width="19" height="24" viewBox="0 0 19 24" fill="none" xmlns="http://www.w3.org/2000/svg">
<path d="M3.49548 8.48739V7.0084C3.49548 3.68067 6.17616 1 9.50389 1H9.7812C13.1089 1 15.7896 3.68067 15.7896 7.0084V8.48739" stroke="#8C99B2" stroke-width="1.5" stroke-miterlimit="10" stroke-linecap="round" stroke-linejoin="round"/>
<path d="M18.0084 22.0001C18.0084 22.5524 17.5607 23.0001 17.0084 23.0001H2.7563C1.7395 23.0001 1 22.1682 1 21.2438V12.6472C1 11.6304 1.83193 10.8909 2.7563 10.8909H16.2521C17.2689 10.8909 18.0084 11.7228 18.0084 12.6472V15.0505" stroke="#8C99B2" stroke-width="1.5" stroke-miterlimit="10" stroke-linecap="round" stroke-linejoin="round"/>
<path d="M9.50401 17.7312C10.525 17.7312 11.3528 16.9035 11.3528 15.8824C11.3528 14.8614 10.525 14.0337 9.50401 14.0337C8.48298 14.0337 7.65527 14.8614 7.65527 15.8824C7.65527 16.9035 8.48298 17.7312 9.50401 17.7312Z" stroke="#8C99B2" stroke-width="1.5" stroke-miterlimit="10" stroke-linecap="round" stroke-linejoin="round"/>
<path d="M9.50397 17.916V19.7648" stroke="#8C99B2" stroke-width="1.5" stroke-miterlimit="10" stroke-linecap="round" stroke-linejoin="round"/>
</svg>
