<svg width="275" height="72" viewBox="0 0 275 72" fill="none" xmlns="http://www.w3.org/2000/svg">
<path fill-rule="evenodd" clip-rule="evenodd" d="M262.749 0.71144C247.734 20.2288 228.259 36.1373 205.85 46.9122L202.357 43.7684C182.663 52.9887 160.683 58.14 137.5 58.14C114.317 58.14 92.3374 52.9887 72.643 43.7684L69.15 46.9121C46.7405 36.1372 27.2659 20.2288 12.2511 0.711418L0.371039 0.711417C16.0512 23.019 37.0367 41.3272 61.4939 53.8026C63.6251 54.8897 65.7826 55.9325 67.9653 56.9298C89.145 66.6071 112.693 72 137.5 72C162.307 72 185.855 66.6071 207.035 56.9298C209.217 55.9325 211.375 54.8897 213.506 53.8026C237.963 41.3272 258.949 23.019 274.629 0.711441L262.749 0.71144Z" fill="#272A38" fill-opacity="0.5"/>
</svg>
