<svg width="24" height="24" viewBox="0 0 24 24" fill="none" xmlns="http://www.w3.org/2000/svg">
<path fill-rule="evenodd" clip-rule="evenodd" d="M12 7.8002C12.7 7.8002 13.3 7.20019 13.3 6.50019C13.3 5.80019 12.7 5.2002 12 5.2002C11.3 5.2002 10.7 5.80019 10.7 6.50019C10.7 7.20019 11.3 7.8002 12 7.8002Z" fill="#606580"/>
<path fill-rule="evenodd" clip-rule="evenodd" d="M12 13.3002C12.7 13.3002 13.3 12.7002 13.3 12.0002C13.3 11.3002 12.7 10.7002 12 10.7002C11.3 10.7002 10.7 11.3002 10.7 12.0002C10.7 12.7002 11.3 13.3002 12 13.3002Z" fill="#606580"/>
<path fill-rule="evenodd" clip-rule="evenodd" d="M12 18.8002C12.7 18.8002 13.3 18.2002 13.3 17.5002C13.3 16.8002 12.7 16.2002 12 16.2002C11.3 16.2002 10.7 16.8002 10.7 17.5002C10.7 18.2002 11.3 18.8002 12 18.8002Z" fill="#606580"/>
</svg>
