<svg width="24" height="24" viewBox="0 0 24 24" fill="none" xmlns="http://www.w3.org/2000/svg">
<path d="M4.5 7.2H13.5C13.7 8.2 14.6 8.9 15.6 8.9C16.6 8.9 17.5 8.2 17.7 7.2H19.4C19.7 7.2 19.9 7 19.9 6.7C19.9 6.4 19.7 6.2 19.4 6.2H17.7C17.5 5.2 16.6 4.5 15.6 4.5C14.6 4.5 13.7 5.2 13.5 6.2H4.5C4.2 6.2 4 6.4 4 6.7C4 7 4.3 7.2 4.5 7.2ZM15.7 5.5C16.4 5.5 16.9 6 16.9 6.7C16.9 7.4 16.4 7.9 15.7 7.9C15 7.9 14.5 7.4 14.5 6.7C14.5 6 15 5.5 15.7 5.5Z" fill="#606580"/>
<path d="M19.5001 16.8001H15.9001C15.7001 15.8001 14.8001 15.1001 13.8001 15.1001C12.8001 15.1001 11.9001 15.8001 11.7001 16.8001H4.6001C4.3001 16.8001 4.1001 17.0001 4.1001 17.3001C4.1001 17.6001 4.3001 17.8001 4.6001 17.8001H11.7001C11.9001 18.8001 12.8001 19.5001 13.8001 19.5001C14.8001 19.5001 15.7001 18.8001 15.9001 17.8001H19.5001C19.8001 17.8001 20.0001 17.6001 20.0001 17.3001C20.0001 17.0001 19.8001 16.8001 19.5001 16.8001ZM13.8001 18.4001C13.1001 18.4001 12.6001 17.9001 12.6001 17.2001C12.6001 16.5001 13.1001 16.0001 13.8001 16.0001C14.5001 16.0001 15.0001 16.5001 15.0001 17.2001C15.0001 17.9001 14.4001 18.4001 13.8001 18.4001Z" fill="#606580"/>
<path d="M19.5 11.4998H10.5C10.3 10.4998 9.4 9.7998 8.4 9.7998C7.4 9.7998 6.5 10.4998 6.3 11.4998H4.5C4.2 11.4998 4 11.6998 4 11.9998C4 12.2998 4.2 12.4998 4.5 12.4998H6.3C6.5 13.4998 7.4 14.1998 8.4 14.1998C9.4 14.1998 10.3 13.4998 10.5 12.4998H19.5C19.8 12.4998 20 12.2998 20 11.9998C20 11.6998 19.8 11.4998 19.5 11.4998ZM8.5 13.0998C7.8 13.0998 7.3 12.5998 7.3 11.8998C7.3 11.1998 7.8 10.6998 8.5 10.6998C9.2 10.6998 9.7 11.1998 9.7 11.8998C9.7 12.5998 9.1 13.0998 8.5 13.0998Z" fill="#606580"/>
</svg>
